# xmcd
#
# Track frame offsets: 
#        150
#        13009
#        28935
#        43202
#        57505
#        73310
#        89772
#        106945
#        119687
#        134980
#        152000
#        168257
#        185562
#
# Disc length: 2665 seconds
#
# Revision: 1
# Processed by: cddbd v1.5.2PL0 Copyright (c) Steve Scherf et al.
# Submitted via: ExactAudioCopy v0.99pb5
#
DISCID=ca0a670d
DTITLE=Wierzcholski S³awek - Polski Blues
DYEAR=1993
DGENRE=Blues
TTITLE0=Polski Blues
TTITLE1=John Lee Hooker
TTITLE2=Ciezki Dzien
TTITLE3=Poniedzialek Rano
TTITLE4=Okno I Cien
TTITLE5=Trudne Chwile
TTITLE6=Refleksje
TTITLE7=On! On! On!
TTITLE8=Bywa Roznie
TTITLE9=Wyscigi Zycia
TTITLE10=Ruszam W Droge
TTITLE11=Papieros Na Sniadanie
TTITLE12=Manifest Bluesowy
EXTD=YEAR: 1993
EXTT0=
EXTT1=
EXTT2=
EXTT3=
EXTT4=
EXTT5=
EXTT6=
EXTT7=
EXTT8=
EXTT9=
EXTT10=
EXTT11=
EXTT12=
PLAYORDER=
